# Dompet Garuda IoT Device - lightweight OBJ approximation
# Units: arbitrary product-scale units
o DompetGaruda_IoT_Device
v -2.90000 -0.52500 -4.00000
v 2.90000 -0.52500 -4.00000
v 2.90000 0.52500 -4.00000
v -2.90000 0.52500 -4.00000
v -2.90000 -0.52500 4.00000
v 2.90000 -0.52500 4.00000
v 2.90000 0.52500 4.00000
v -2.90000 0.52500 4.00000
v -1.95000 -0.66000 -2.30000
v 1.95000 -0.66000 -2.30000
v 1.95000 -0.48000 -2.30000
v -1.95000 -0.48000 -2.30000
v -1.95000 -0.66000 3.60000
v 1.95000 -0.66000 3.60000
v 1.95000 -0.48000 3.60000
v -1.95000 -0.48000 3.60000
v -1.77500 -0.72000 -2.12500
v 1.77500 -0.72000 -2.12500
v 1.77500 -0.64000 -2.12500
v -1.77500 -0.64000 -2.12500
v -1.77500 -0.72000 3.42500
v 1.77500 -0.72000 3.42500
v 1.77500 -0.64000 3.42500
v -1.77500 -0.64000 3.42500
v -1.57000 -0.72000 3.15000
v -1.57613 -0.72000 3.19659
v -1.59412 -0.72000 3.24000
v -1.62272 -0.72000 3.27728
v -1.66000 -0.72000 3.30588
v -1.70341 -0.72000 3.32387
v -1.75000 -0.72000 3.33000
v -1.79659 -0.72000 3.32387
v -1.84000 -0.72000 3.30588
v -1.87728 -0.72000 3.27728
v -1.90588 -0.72000 3.24000
v -1.92387 -0.72000 3.19659
v -1.93000 -0.72000 3.15000
v -1.92387 -0.72000 3.10341
v -1.90588 -0.72000 3.06000
v -1.87728 -0.72000 3.02272
v -1.84000 -0.72000 2.99412
v -1.79659 -0.72000 2.97613
v -1.75000 -0.72000 2.97000
v -1.70341 -0.72000 2.97613
v -1.66000 -0.72000 2.99412
v -1.62272 -0.72000 3.02272
v -1.59412 -0.72000 3.06000
v -1.57613 -0.72000 3.10341
v -1.57000 -0.62000 3.15000
v -1.57613 -0.62000 3.19659
v -1.59412 -0.62000 3.24000
v -1.62272 -0.62000 3.27728
v -1.66000 -0.62000 3.30588
v -1.70341 -0.62000 3.32387
v -1.75000 -0.62000 3.33000
v -1.79659 -0.62000 3.32387
v -1.84000 -0.62000 3.30588
v -1.87728 -0.62000 3.27728
v -1.90588 -0.62000 3.24000
v -1.92387 -0.62000 3.19659
v -1.93000 -0.62000 3.15000
v -1.92387 -0.62000 3.10341
v -1.90588 -0.62000 3.06000
v -1.87728 -0.62000 3.02272
v -1.84000 -0.62000 2.99412
v -1.79659 -0.62000 2.97613
v -1.75000 -0.62000 2.97000
v -1.70341 -0.62000 2.97613
v -1.66000 -0.62000 2.99412
v -1.62272 -0.62000 3.02272
v -1.59412 -0.62000 3.06000
v -1.57613 -0.62000 3.10341
v -1.77500 -0.76500 -2.20000
v 1.77500 -0.76500 -2.20000
v 1.77500 -0.70500 -2.20000
v -1.77500 -0.70500 -2.20000
v -1.77500 -0.76500 -2.10000
v 1.77500 -0.76500 -2.10000
v 1.77500 -0.70500 -2.10000
v -1.77500 -0.70500 -2.10000
v -1.52500 -0.76250 1.94000
v 1.52500 -0.76250 1.94000
v 1.52500 -0.72750 1.94000
v -1.52500 -0.72750 1.94000
v -1.52500 -0.76250 2.56000
v 1.52500 -0.76250 2.56000
v 1.52500 -0.72750 2.56000
v -1.52500 -0.72750 2.56000
v -1.52500 -0.76250 0.99000
v 1.52500 -0.76250 0.99000
v 1.52500 -0.72750 0.99000
v -1.52500 -0.72750 0.99000
v -1.52500 -0.76250 1.61000
v 1.52500 -0.76250 1.61000
v 1.52500 -0.72750 1.61000
v -1.52500 -0.72750 1.61000
v -1.52500 -0.76250 0.04000
v 1.52500 -0.76250 0.04000
v 1.52500 -0.72750 0.04000
v -1.52500 -0.72750 0.04000
v -1.52500 -0.76250 0.66000
v 1.52500 -0.76250 0.66000
v 1.52500 -0.72750 0.66000
v -1.52500 -0.72750 0.66000
v -1.52500 -0.76250 -0.91000
v 1.52500 -0.76250 -0.91000
v 1.52500 -0.72750 -0.91000
v -1.52500 -0.72750 -0.91000
v -1.52500 -0.76250 -0.29000
v 1.52500 -0.76250 -0.29000
v 1.52500 -0.72750 -0.29000
v -1.52500 -0.72750 -0.29000
v -1.52500 -0.76250 -1.86000
v 1.52500 -0.76250 -1.86000
v 1.52500 -0.72750 -1.86000
v -1.52500 -0.72750 -1.86000
v -1.52500 -0.76250 -1.24000
v 1.52500 -0.76250 -1.24000
v 1.52500 -0.72750 -1.24000
v -1.52500 -0.72750 -1.24000
g body
f 1 2 3 4
f 5 8 7 6
f 1 5 6 2
f 2 6 7 3
f 3 7 8 4
f 4 8 5 1
g screen_bezel
f 9 10 11 12
f 13 16 15 14
f 9 13 14 10
f 10 14 15 11
f 11 15 16 12
f 12 16 13 9
g screen
f 17 18 19 20
f 21 24 23 22
f 17 21 22 18
f 18 22 23 19
f 19 23 24 20
f 20 24 21 17
g sensor
f 25 26 50 49
f 26 27 51 50
f 27 28 52 51
f 28 29 53 52
f 29 30 54 53
f 30 31 55 54
f 31 32 56 55
f 32 33 57 56
f 33 34 58 57
f 34 35 59 58
f 35 36 60 59
f 36 37 61 60
f 37 38 62 61
f 38 39 63 62
f 39 40 64 63
f 40 41 65 64
f 41 42 66 65
f 42 43 67 66
f 43 44 68 67
f 44 45 69 68
f 45 46 70 69
f 46 47 71 70
f 47 48 72 71
f 48 25 49 72
f 25 26 27 28 29 30 31 32 33 34 35 36 37 38 39 40 41 42 43 44 45 46 47 48
f 72 71 70 69 68 67 66 65 64 63 62 61 60 59 58 57 56 55 54 53 52 51 50 49
g status_strip
f 73 74 75 76
f 77 80 79 78
f 73 77 78 74
f 74 78 79 75
f 75 79 80 76
f 76 80 77 73
g menu_button_1
f 81 82 83 84
f 85 88 87 86
f 81 85 86 82
f 82 86 87 83
f 83 87 88 84
f 84 88 85 81
g menu_button_2
f 89 90 91 92
f 93 96 95 94
f 89 93 94 90
f 90 94 95 91
f 91 95 96 92
f 92 96 93 89
g menu_button_3
f 97 98 99 100
f 101 104 103 102
f 97 101 102 98
f 98 102 103 99
f 99 103 104 100
f 100 104 101 97
g menu_button_4
f 105 106 107 108
f 109 112 111 110
f 105 109 110 106
f 106 110 111 107
f 107 111 112 108
f 108 112 109 105
g menu_button_5
f 113 114 115 116
f 117 120 119 118
f 113 117 118 114
f 114 118 119 115
f 115 119 120 116
f 116 120 117 113
