# https://github.com/mikedh/trimesh
mtllib material.mtl

o geometry_0
v -2.90000000 -0.52500000 -4.00000000 0.07058824 0.07450980 0.08627451
v -2.90000000 -0.52500000 4.00000000 0.07058824 0.07450980 0.08627451
v -2.90000000 0.52500000 -4.00000000 0.07058824 0.07450980 0.08627451
v -2.90000000 0.52500000 4.00000000 0.07058824 0.07450980 0.08627451
v 2.90000000 -0.52500000 -4.00000000 0.07058824 0.07450980 0.08627451
v 2.90000000 -0.52500000 4.00000000 0.07058824 0.07450980 0.08627451
v 2.90000000 0.52500000 -4.00000000 0.07058824 0.07450980 0.08627451
v 2.90000000 0.52500000 4.00000000 0.07058824 0.07450980 0.08627451
f 2 4 1
f 5 2 1
f 1 4 3
f 3 5 1
f 2 8 4
f 6 2 5
f 6 8 2
f 4 8 3
f 7 5 3
f 3 8 7
f 7 6 5
f 8 6 7

o geometry_1
v -2.02500000 -0.68500000 -2.42500000 0.01568627 0.01960784 0.02745098
v -2.02500000 -0.68500000 3.72500000 0.01568627 0.01960784 0.02745098
v -2.02500000 -0.52500000 -2.42500000 0.01568627 0.01960784 0.02745098
v -2.02500000 -0.52500000 3.72500000 0.01568627 0.01960784 0.02745098
v 2.02500000 -0.68500000 -2.42500000 0.01568627 0.01960784 0.02745098
v 2.02500000 -0.68500000 3.72500000 0.01568627 0.01960784 0.02745098
v 2.02500000 -0.52500000 -2.42500000 0.01568627 0.01960784 0.02745098
v 2.02500000 -0.52500000 3.72500000 0.01568627 0.01960784 0.02745098
f 10 12 9
f 13 10 9
f 9 12 11
f 11 13 9
f 10 16 12
f 14 10 13
f 14 16 10
f 12 16 11
f 15 13 11
f 11 16 15
f 15 14 13
f 16 14 15

o geometry_2
usemtl material_0
v -1.82500000 -0.74250000 -2.20000000
v -1.82500000 -0.74250000 3.50000000
v -1.82500000 -0.68750000 -2.20000000
v -1.82500000 -0.68750000 3.50000000
v 1.82500000 -0.74250000 -2.20000000
v 1.82500000 -0.74250000 3.50000000
v 1.82500000 -0.68750000 -2.20000000
v 1.82500000 -0.68750000 3.50000000
vt 0.00000000 0.00000000
vt 1.00000000 0.00000000
vt 1.00000000 1.00000000
vt 0.00000000 1.00000000
vt 0.00000000 0.00000000
vt 1.00000000 0.00000000
vt 1.00000000 1.00000000
vt 0.00000000 1.00000000
vt 0.00000000 0.00000000
vt 1.00000000 0.00000000
vt 1.00000000 1.00000000
vt 0.00000000 1.00000000
vt 0.00000000 0.00000000
vt 1.00000000 0.00000000
vt 1.00000000 1.00000000
vt 0.00000000 1.00000000
vt 0.00000000 0.00000000
vt 1.00000000 0.00000000
vt 1.00000000 1.00000000
vt 0.00000000 1.00000000
vt 0.00000000 0.00000000
vt 1.00000000 0.00000000
vt 1.00000000 1.00000000
vt 0.00000000 1.00000000
f 18/18 20/20 17/17
f 21/21 18/18 17/17
f 17/17 20/20 19/19
f 19/19 21/21 17/17
f 18/18 24/24 20/20
f 22/22 18/18 21/21
f 22/22 24/24 18/18
f 20/20 24/24 19/19
f 23/23 21/21 19/19
f 19/19 24/24 23/23
f 23/23 22/22 21/21
f 24/24 22/22 23/23

o geometry_3
v -1.75000000 -0.64000000 3.15000000 0.01176471 0.01176471 0.01568627
v -1.57000000 -0.64000000 3.15000000 0.01176471 0.01176471 0.01568627
v -1.57000000 -0.74000000 3.15000000 0.01176471 0.01176471 0.01568627
v -1.75000000 -0.74000000 3.15000000 0.01176471 0.01176471 0.01568627
v -1.57345865 -0.64000000 3.18511626 0.01176471 0.01176471 0.01568627
v -1.57345865 -0.74000000 3.18511626 0.01176471 0.01176471 0.01568627
v -1.58370168 -0.64000000 3.21888302 0.01176471 0.01176471 0.01568627
v -1.58370168 -0.74000000 3.21888302 0.01176471 0.01176471 0.01568627
v -1.60033547 -0.64000000 3.25000264 0.01176471 0.01176471 0.01568627
v -1.60033547 -0.74000000 3.25000264 0.01176471 0.01176471 0.01568627
v -1.62272078 -0.64000000 3.27727922 0.01176471 0.01176471 0.01568627
v -1.62272078 -0.74000000 3.27727922 0.01176471 0.01176471 0.01568627
v -1.64999736 -0.64000000 3.29966453 0.01176471 0.01176471 0.01568627
v -1.64999736 -0.74000000 3.29966453 0.01176471 0.01176471 0.01568627
v -1.68111698 -0.64000000 3.31629832 0.01176471 0.01176471 0.01568627
v -1.68111698 -0.74000000 3.31629832 0.01176471 0.01176471 0.01568627
v -1.71488374 -0.64000000 3.32654135 0.01176471 0.01176471 0.01568627
v -1.71488374 -0.74000000 3.32654135 0.01176471 0.01176471 0.01568627
v -1.75000000 -0.64000000 3.33000000 0.01176471 0.01176471 0.01568627
v -1.75000000 -0.74000000 3.33000000 0.01176471 0.01176471 0.01568627
v -1.78511626 -0.64000000 3.32654135 0.01176471 0.01176471 0.01568627
v -1.78511626 -0.74000000 3.32654135 0.01176471 0.01176471 0.01568627
v -1.81888302 -0.64000000 3.31629832 0.01176471 0.01176471 0.01568627
v -1.81888302 -0.74000000 3.31629832 0.01176471 0.01176471 0.01568627
v -1.85000264 -0.64000000 3.29966453 0.01176471 0.01176471 0.01568627
v -1.85000264 -0.74000000 3.29966453 0.01176471 0.01176471 0.01568627
v -1.87727922 -0.64000000 3.27727922 0.01176471 0.01176471 0.01568627
v -1.87727922 -0.74000000 3.27727922 0.01176471 0.01176471 0.01568627
v -1.89966453 -0.64000000 3.25000264 0.01176471 0.01176471 0.01568627
v -1.89966453 -0.74000000 3.25000264 0.01176471 0.01176471 0.01568627
v -1.91629832 -0.64000000 3.21888302 0.01176471 0.01176471 0.01568627
v -1.91629832 -0.74000000 3.21888302 0.01176471 0.01176471 0.01568627
v -1.92654135 -0.64000000 3.18511626 0.01176471 0.01176471 0.01568627
v -1.92654135 -0.74000000 3.18511626 0.01176471 0.01176471 0.01568627
v -1.93000000 -0.64000000 3.15000000 0.01176471 0.01176471 0.01568627
v -1.93000000 -0.74000000 3.15000000 0.01176471 0.01176471 0.01568627
v -1.92654135 -0.64000000 3.11488374 0.01176471 0.01176471 0.01568627
v -1.92654135 -0.74000000 3.11488374 0.01176471 0.01176471 0.01568627
v -1.91629832 -0.64000000 3.08111698 0.01176471 0.01176471 0.01568627
v -1.91629832 -0.74000000 3.08111698 0.01176471 0.01176471 0.01568627
v -1.89966453 -0.64000000 3.04999736 0.01176471 0.01176471 0.01568627
v -1.89966453 -0.74000000 3.04999736 0.01176471 0.01176471 0.01568627
v -1.87727922 -0.64000000 3.02272078 0.01176471 0.01176471 0.01568627
v -1.87727922 -0.74000000 3.02272078 0.01176471 0.01176471 0.01568627
v -1.85000264 -0.64000000 3.00033547 0.01176471 0.01176471 0.01568627
v -1.85000264 -0.74000000 3.00033547 0.01176471 0.01176471 0.01568627
v -1.81888302 -0.64000000 2.98370168 0.01176471 0.01176471 0.01568627
v -1.81888302 -0.74000000 2.98370168 0.01176471 0.01176471 0.01568627
v -1.78511626 -0.64000000 2.97345865 0.01176471 0.01176471 0.01568627
v -1.78511626 -0.74000000 2.97345865 0.01176471 0.01176471 0.01568627
v -1.75000000 -0.64000000 2.97000000 0.01176471 0.01176471 0.01568627
v -1.75000000 -0.74000000 2.97000000 0.01176471 0.01176471 0.01568627
v -1.71488374 -0.64000000 2.97345865 0.01176471 0.01176471 0.01568627
v -1.71488374 -0.74000000 2.97345865 0.01176471 0.01176471 0.01568627
v -1.68111698 -0.64000000 2.98370168 0.01176471 0.01176471 0.01568627
v -1.68111698 -0.74000000 2.98370168 0.01176471 0.01176471 0.01568627
v -1.64999736 -0.64000000 3.00033547 0.01176471 0.01176471 0.01568627
v -1.64999736 -0.74000000 3.00033547 0.01176471 0.01176471 0.01568627
v -1.62272078 -0.64000000 3.02272078 0.01176471 0.01176471 0.01568627
v -1.62272078 -0.74000000 3.02272078 0.01176471 0.01176471 0.01568627
v -1.60033547 -0.64000000 3.04999736 0.01176471 0.01176471 0.01568627
v -1.60033547 -0.74000000 3.04999736 0.01176471 0.01176471 0.01568627
v -1.58370168 -0.64000000 3.08111698 0.01176471 0.01176471 0.01568627
v -1.58370168 -0.74000000 3.08111698 0.01176471 0.01176471 0.01568627
v -1.57345865 -0.64000000 3.11488374 0.01176471 0.01176471 0.01568627
v -1.57345865 -0.74000000 3.11488374 0.01176471 0.01176471 0.01568627
f 26 25 29
f 26 29 27
f 27 29 30
f 27 30 28
f 29 25 31
f 29 31 30
f 30 31 32
f 30 32 28
f 31 25 33
f 31 33 32
f 32 33 34
f 32 34 28
f 33 25 35
f 33 35 34
f 34 35 36
f 34 36 28
f 35 25 37
f 35 37 36
f 36 37 38
f 36 38 28
f 37 25 39
f 37 39 38
f 38 39 40
f 38 40 28
f 39 25 41
f 39 41 40
f 40 41 42
f 40 42 28
f 41 25 43
f 41 43 42
f 42 43 44
f 42 44 28
f 43 25 45
f 43 45 44
f 44 45 46
f 44 46 28
f 45 25 47
f 45 47 46
f 46 47 48
f 46 48 28
f 47 25 49
f 47 49 48
f 48 49 50
f 48 50 28
f 49 25 51
f 49 51 50
f 50 51 52
f 50 52 28
f 51 25 53
f 51 53 52
f 52 53 54
f 52 54 28
f 53 25 55
f 53 55 54
f 54 55 56
f 54 56 28
f 55 25 57
f 55 57 56
f 56 57 58
f 56 58 28
f 57 25 59
f 57 59 58
f 58 59 60
f 58 60 28
f 59 25 61
f 59 61 60
f 60 61 62
f 60 62 28
f 61 25 63
f 61 63 62
f 62 63 64
f 62 64 28
f 63 25 65
f 63 65 64
f 64 65 66
f 64 66 28
f 65 25 67
f 65 67 66
f 66 67 68
f 66 68 28
f 67 25 69
f 67 69 68
f 68 69 70
f 68 70 28
f 69 25 71
f 69 71 70
f 70 71 72
f 70 72 28
f 71 25 73
f 71 73 72
f 72 73 74
f 72 74 28
f 73 25 75
f 73 75 74
f 74 75 76
f 74 76 28
f 75 25 77
f 75 77 76
f 76 77 78
f 76 78 28
f 77 25 79
f 77 79 78
f 78 79 80
f 78 80 28
f 79 25 81
f 79 81 80
f 80 81 82
f 80 82 28
f 81 25 83
f 81 83 82
f 82 83 84
f 82 84 28
f 83 25 85
f 83 85 84
f 84 85 86
f 84 86 28
f 85 25 87
f 85 87 86
f 86 87 88
f 86 88 28
f 87 25 89
f 87 89 88
f 88 89 90
f 88 90 28
f 89 25 26
f 89 26 90
f 90 26 27
f 90 27 28

o geometry_4
v -1.77500000 -0.77250000 -2.24000000 0.82352941 0.31372549 0.13725490
v -1.77500000 -0.77250000 -2.16000000 0.82352941 0.31372549 0.13725490
v -1.77500000 -0.73750000 -2.24000000 0.82352941 0.31372549 0.13725490
v -1.77500000 -0.73750000 -2.16000000 0.82352941 0.31372549 0.13725490
v 1.77500000 -0.77250000 -2.24000000 0.82352941 0.31372549 0.13725490
v 1.77500000 -0.77250000 -2.16000000 0.82352941 0.31372549 0.13725490
v 1.77500000 -0.73750000 -2.24000000 0.82352941 0.31372549 0.13725490
v 1.77500000 -0.73750000 -2.16000000 0.82352941 0.31372549 0.13725490
f 92 94 91
f 95 92 91
f 91 94 93
f 93 95 91
f 92 98 94
f 96 92 95
f 96 98 92
f 94 98 93
f 97 95 93
f 93 98 97
f 97 96 95
f 98 96 97

